<?xml version="1.0" encoding="UTF-8" standalone="no"?>
<svg width="132px" height="160px" viewBox="0 0 132 160" version="1.1" xmlns="http://www.w3.org/2000/svg" xmlns:xlink="http://www.w3.org/1999/xlink">
    <!-- Generator: Sketch 3.8.3 (29802) - http://www.bohemiancoding.com/sketch -->
    <title>Slice 1</title>
    <desc>Created with Sketch.</desc>
    <defs></defs>
    <g id="Page-1" stroke="none" stroke-width="1" fill="none" fill-rule="evenodd">
        <g id="Group-3">
            <g id="Group">
                <rect id="Rectangle-1" fill="#00804C" x="0" y="0" width="24" height="24" rx="2"></rect>
                <polygon id="Star-1" fill="#FFFFFF" points="12 16 7.29771798 18.472136 8.19577393 13.236068 4.39154787 9.52786405 9.64885899 8.76393202 12 4 14.351141 8.76393202 19.6084521 9.52786405 15.8042261 13.236068 16.702282 18.472136"></polygon>
            </g>
            <g id="Group" transform="translate(27.000000, 0.000000)">
                <rect id="Rectangle-1" fill="#00804C" x="0" y="0" width="24" height="24" rx="2"></rect>
                <polygon id="Star-1" fill="#FFFFFF" points="12 16 7.29771798 18.472136 8.19577393 13.236068 4.39154787 9.52786405 9.64885899 8.76393202 12 4 14.351141 8.76393202 19.6084521 9.52786405 15.8042261 13.236068 16.702282 18.472136"></polygon>
            </g>
            <g id="Group" transform="translate(54.000000, 0.000000)">
                <rect id="Rectangle-1" fill="#00804C" x="0" y="0" width="24" height="24" rx="2"></rect>
                <polygon id="Star-1" fill="#FFFFFF" points="12 16 7.29771798 18.472136 8.19577393 13.236068 4.39154787 9.52786405 9.64885899 8.76393202 12 4 14.351141 8.76393202 19.6084521 9.52786405 15.8042261 13.236068 16.702282 18.472136"></polygon>
            </g>
            <g id="Group" transform="translate(81.000000, 0.000000)">
                <rect id="Rectangle-1" fill="#00804C" x="0" y="0" width="24" height="24" rx="2"></rect>
                <polygon id="Star-1" fill="#FFFFFF" points="12 16 7.29771798 18.472136 8.19577393 13.236068 4.39154787 9.52786405 9.64885899 8.76393202 12 4 14.351141 8.76393202 19.6084521 9.52786405 15.8042261 13.236068 16.702282 18.472136"></polygon>
            </g>
            <g id="Group" transform="translate(108.000000, 0.000000)">
                <rect id="Rectangle-1" fill="#00804C" x="0" y="0" width="24" height="24" rx="2"></rect>
                <polygon id="Star-1" fill="#FFFFFF" points="12 16 7.29771798 18.472136 8.19577393 13.236068 4.39154787 9.52786405 9.64885899 8.76393202 12 4 14.351141 8.76393202 19.6084521 9.52786405 15.8042261 13.236068 16.702282 18.472136"></polygon>
            </g>
        </g>
        <g id="Group-2" transform="translate(0.000000, 34.000000)">
            <g id="Group">
                <rect id="Rectangle-1" fill="#71B23B" x="0" y="0" width="24" height="24" rx="2"></rect>
                <polygon id="Star-1" fill="#FFFFFF" points="12 16 7.29771798 18.472136 8.19577393 13.236068 4.39154787 9.52786405 9.64885899 8.76393202 12 4 14.351141 8.76393202 19.6084521 9.52786405 15.8042261 13.236068 16.702282 18.472136"></polygon>
            </g>
            <g id="Group" transform="translate(27.000000, 0.000000)">
                <rect id="Rectangle-1" fill="#71B23B" x="0" y="0" width="24" height="24" rx="2"></rect>
                <polygon id="Star-1" fill="#FFFFFF" points="12 16 7.29771798 18.472136 8.19577393 13.236068 4.39154787 9.52786405 9.64885899 8.76393202 12 4 14.351141 8.76393202 19.6084521 9.52786405 15.8042261 13.236068 16.702282 18.472136"></polygon>
            </g>
            <g id="Group" transform="translate(54.000000, 0.000000)">
                <rect id="Rectangle-1" fill="#71B23B" x="0" y="0" width="24" height="24" rx="2"></rect>
                <polygon id="Star-1" fill="#FFFFFF" points="12 16 7.29771798 18.472136 8.19577393 13.236068 4.39154787 9.52786405 9.64885899 8.76393202 12 4 14.351141 8.76393202 19.6084521 9.52786405 15.8042261 13.236068 16.702282 18.472136"></polygon>
            </g>
            <g id="Group" transform="translate(81.000000, 0.000000)">
                <rect id="Rectangle-1" fill="#71B23B" x="0" y="0" width="24" height="24" rx="2"></rect>
                <polygon id="Star-1" fill="#FFFFFF" points="12 16 7.29771798 18.472136 8.19577393 13.236068 4.39154787 9.52786405 9.64885899 8.76393202 12 4 14.351141 8.76393202 19.6084521 9.52786405 15.8042261 13.236068 16.702282 18.472136"></polygon>
            </g>
            <g id="Group" transform="translate(108.000000, 0.000000)">
                <rect id="Rectangle-1" fill="#CDCDCD" x="0" y="0" width="24" height="24" rx="2"></rect>
                <polygon id="Star-1" fill="#FFFFFF" points="12 16 7.29771798 18.472136 8.19577393 13.236068 4.39154787 9.52786405 9.64885899 8.76393202 12 4 14.351141 8.76393202 19.6084521 9.52786405 15.8042261 13.236068 16.702282 18.472136"></polygon>
            </g>
        </g>
        <g id="Group-2" transform="translate(0.000000, 68.000000)">
            <g id="Group">
                <rect id="Rectangle-1" fill="#F9CD00" x="0" y="0" width="24" height="24" rx="2"></rect>
                <polygon id="Star-1" fill="#FFFFFF" points="12 16 7.29771798 18.472136 8.19577393 13.236068 4.39154787 9.52786405 9.64885899 8.76393202 12 4 14.351141 8.76393202 19.6084521 9.52786405 15.8042261 13.236068 16.702282 18.472136"></polygon>
            </g>
            <g id="Group" transform="translate(27.000000, 0.000000)">
                <rect id="Rectangle-1" fill="#F9CD00" x="0" y="0" width="24" height="24" rx="2"></rect>
                <polygon id="Star-1" fill="#FFFFFF" points="12 16 7.29771798 18.472136 8.19577393 13.236068 4.39154787 9.52786405 9.64885899 8.76393202 12 4 14.351141 8.76393202 19.6084521 9.52786405 15.8042261 13.236068 16.702282 18.472136"></polygon>
            </g>
            <g id="Group" transform="translate(54.000000, 0.000000)">
                <rect id="Rectangle-1" fill="#F9CD00" x="0" y="0" width="24" height="24" rx="2"></rect>
                <polygon id="Star-1" fill="#FFFFFF" points="12 16 7.29771798 18.472136 8.19577393 13.236068 4.39154787 9.52786405 9.64885899 8.76393202 12 4 14.351141 8.76393202 19.6084521 9.52786405 15.8042261 13.236068 16.702282 18.472136"></polygon>
            </g>
            <g id="Group" transform="translate(81.000000, 0.000000)">
                <rect id="Rectangle-1" fill="#CDCDCD" x="0" y="0" width="24" height="24" rx="2"></rect>
                <polygon id="Star-1" fill="#FFFFFF" points="12 16 7.29771798 18.472136 8.19577393 13.236068 4.39154787 9.52786405 9.64885899 8.76393202 12 4 14.351141 8.76393202 19.6084521 9.52786405 15.8042261 13.236068 16.702282 18.472136"></polygon>
            </g>
            <g id="Group" transform="translate(108.000000, 0.000000)">
                <rect id="Rectangle-1" fill="#CDCDCD" x="0" y="0" width="24" height="24" rx="2"></rect>
                <polygon id="Star-1" fill="#FFFFFF" points="12 16 7.29771798 18.472136 8.19577393 13.236068 4.39154787 9.52786405 9.64885899 8.76393202 12 4 14.351141 8.76393202 19.6084521 9.52786405 15.8042261 13.236068 16.702282 18.472136"></polygon>
            </g>
        </g>
        <g id="Group-2" transform="translate(0.000000, 102.000000)">
            <g id="Group">
                <rect id="Rectangle-1" fill="#F67309" x="0" y="0" width="24" height="24" rx="2"></rect>
                <polygon id="Star-1" fill="#FFFFFF" points="12 16 7.29771798 18.472136 8.19577393 13.236068 4.39154787 9.52786405 9.64885899 8.76393202 12 4 14.351141 8.76393202 19.6084521 9.52786405 15.8042261 13.236068 16.702282 18.472136"></polygon>
            </g>
            <g id="Group" transform="translate(27.000000, 0.000000)">
                <rect id="Rectangle-1" fill="#F67309" x="0" y="0" width="24" height="24" rx="2"></rect>
                <polygon id="Star-1" fill="#FFFFFF" points="12 16 7.29771798 18.472136 8.19577393 13.236068 4.39154787 9.52786405 9.64885899 8.76393202 12 4 14.351141 8.76393202 19.6084521 9.52786405 15.8042261 13.236068 16.702282 18.472136"></polygon>
            </g>
            <g id="Group" transform="translate(54.000000, 0.000000)">
                <rect id="Rectangle-1" fill="#CDCDCD" x="0" y="0" width="24" height="24" rx="2"></rect>
                <polygon id="Star-1" fill="#FFFFFF" points="12 16 7.29771798 18.472136 8.19577393 13.236068 4.39154787 9.52786405 9.64885899 8.76393202 12 4 14.351141 8.76393202 19.6084521 9.52786405 15.8042261 13.236068 16.702282 18.472136"></polygon>
            </g>
            <g id="Group" transform="translate(81.000000, 0.000000)">
                <rect id="Rectangle-1" fill="#CDCDCD" x="0" y="0" width="24" height="24" rx="2"></rect>
                <polygon id="Star-1" fill="#FFFFFF" points="12 16 7.29771798 18.472136 8.19577393 13.236068 4.39154787 9.52786405 9.64885899 8.76393202 12 4 14.351141 8.76393202 19.6084521 9.52786405 15.8042261 13.236068 16.702282 18.472136"></polygon>
            </g>
            <g id="Group" transform="translate(108.000000, 0.000000)">
                <rect id="Rectangle-1" fill="#CDCDCD" x="0" y="0" width="24" height="24" rx="2"></rect>
                <polygon id="Star-1" fill="#FFFFFF" points="12 16 7.29771798 18.472136 8.19577393 13.236068 4.39154787 9.52786405 9.64885899 8.76393202 12 4 14.351141 8.76393202 19.6084521 9.52786405 15.8042261 13.236068 16.702282 18.472136"></polygon>
            </g>
        </g>
        <g id="Group-2" transform="translate(0.000000, 136.000000)">
            <g id="Group">
                <rect id="Rectangle-1" fill="#E51B1C" x="0" y="0" width="24" height="24" rx="2"></rect>
                <polygon id="Star-1" fill="#FFFFFF" points="12 16 7.29771798 18.472136 8.19577393 13.236068 4.39154787 9.52786405 9.64885899 8.76393202 12 4 14.351141 8.76393202 19.6084521 9.52786405 15.8042261 13.236068 16.702282 18.472136"></polygon>
            </g>
            <g id="Group" transform="translate(27.000000, 0.000000)">
                <rect id="Rectangle-1" fill="#CDCDCD" x="0" y="0" width="24" height="24" rx="2"></rect>
                <polygon id="Star-1" fill="#FFFFFF" points="12 16 7.29771798 18.472136 8.19577393 13.236068 4.39154787 9.52786405 9.64885899 8.76393202 12 4 14.351141 8.76393202 19.6084521 9.52786405 15.8042261 13.236068 16.702282 18.472136"></polygon>
            </g>
            <g id="Group" transform="translate(54.000000, 0.000000)">
                <rect id="Rectangle-1" fill="#CDCDCD" x="0" y="0" width="24" height="24" rx="2"></rect>
                <polygon id="Star-1" fill="#FFFFFF" points="12 16 7.29771798 18.472136 8.19577393 13.236068 4.39154787 9.52786405 9.64885899 8.76393202 12 4 14.351141 8.76393202 19.6084521 9.52786405 15.8042261 13.236068 16.702282 18.472136"></polygon>
            </g>
            <g id="Group" transform="translate(81.000000, 0.000000)">
                <rect id="Rectangle-1" fill="#CDCDCD" x="0" y="0" width="24" height="24" rx="2"></rect>
                <polygon id="Star-1" fill="#FFFFFF" points="12 16 7.29771798 18.472136 8.19577393 13.236068 4.39154787 9.52786405 9.64885899 8.76393202 12 4 14.351141 8.76393202 19.6084521 9.52786405 15.8042261 13.236068 16.702282 18.472136"></polygon>
            </g>
            <g id="Group" transform="translate(108.000000, 0.000000)">
                <rect id="Rectangle-1" fill="#CDCDCD" x="0" y="0" width="24" height="24" rx="2"></rect>
                <polygon id="Star-1" fill="#FFFFFF" points="12 16 7.29771798 18.472136 8.19577393 13.236068 4.39154787 9.52786405 9.64885899 8.76393202 12 4 14.351141 8.76393202 19.6084521 9.52786405 15.8042261 13.236068 16.702282 18.472136"></polygon>
            </g>
        </g>
    </g>
</svg>